<?xml version="1.0" encoding="UTF-8"?>
<!DOCTYPE svg PUBLIC "-//W3C//DTD SVG 1.1//EN" "http://www.w3.org/Graphics/SVG/1.1/DTD/svg11.dtd">
<svg xmlns="http://www.w3.org/2000/svg" version="1.1" width="221px" height="228px" style="shape-rendering:geometricPrecision; text-rendering:geometricPrecision; image-rendering:optimizeQuality; fill-rule:evenodd; clip-rule:evenodd" xmlns:xlink="http://www.w3.org/1999/xlink">
<g><path style="opacity:1" fill="#020202" d="M -0.5,-0.5 C 73.1667,-0.5 146.833,-0.5 220.5,-0.5C 220.5,72.8333 220.5,146.167 220.5,219.5C 146.833,219.5 73.1667,219.5 -0.5,219.5C -0.5,146.167 -0.5,72.8333 -0.5,-0.5 Z"/></g>
<g><path style="opacity:1" fill="#e3c76a" d="M 111.5,54.5 C 111.5,56.8333 111.5,59.1667 111.5,61.5C 111.025,64.3126 112.025,66.3126 114.5,67.5C 111.5,68.8333 108.5,68.8333 105.5,67.5C 108.41,66.0268 109.077,63.8601 107.5,61C 106.552,60.5172 105.552,60.3505 104.5,60.5C 103.327,62.8459 103.327,61.6792 104.5,57C 106.798,55.9137 108.798,54.4137 110.5,52.5C 111.298,52.9569 111.631,53.6236 111.5,54.5 Z"/></g>
<g><path style="opacity:1" fill="#a49251" d="M 121.5,71.5 C 117.966,69.9524 114.133,69.2857 110,69.5C 105.867,69.2857 102.034,69.9524 98.5,71.5C 97.5028,71.5299 96.8361,71.0299 96.5,70C 95.6272,64.715 93.9605,59.715 91.5,55C 94.0394,56.4515 96.8727,57.6182 100,58.5C 100.971,63.4749 100.304,64.1416 98,60.5C 96.073,62.5929 96.2397,64.5929 98.5,66.5C 100.747,67.3742 103.08,67.7076 105.5,67.5C 108.5,68.8333 111.5,68.8333 114.5,67.5C 117.119,67.7683 119.619,67.435 122,66.5C 123.48,64.3369 123.48,62.3369 122,60.5C 119.696,64.1416 119.029,63.4749 120,58.5C 123.415,58.0943 126.082,56.4277 128,53.5C 126.441,58.6954 124.941,64.0288 123.5,69.5C 123.253,70.7133 122.586,71.38 121.5,71.5 Z"/></g>
<g><path style="opacity:1" fill="#b3a162" d="M 111.5,54.5 C 113.215,55.9193 115.048,57.2527 117,58.5C 117.774,60.403 117.44,62.0696 116,63.5C 115.517,62.552 115.351,61.552 115.5,60.5C 114.041,60.4326 112.708,60.7659 111.5,61.5C 111.5,59.1667 111.5,56.8333 111.5,54.5 Z"/></g>
<g><path style="opacity:1" fill="#0d0908" d="M 121.5,75.5 C 134.665,83.8493 138.831,95.5159 134,110.5C 132.053,114.276 129.553,117.61 126.5,120.5C 115.902,126.945 105.235,127.112 94.5,121C 92.1801,119.034 90.1801,116.867 88.5,114.5C 87.4884,113.128 86.4884,111.795 85.5,110.5C 81.2618,97.1028 84.5952,86.1028 95.5,77.5C 103.854,73.0911 112.521,72.4244 121.5,75.5 Z"/></g>
<g><path style="opacity:1" fill="#bfa660" d="M 120.5,86.5 C 119.833,86.8333 119.167,87.1667 118.5,87.5C 118.5,86.1667 118.5,84.8333 118.5,83.5C 116.585,83.2155 114.919,83.5489 113.5,84.5C 109.958,84.1872 106.625,84.5206 103.5,85.5C 101.871,86.6253 100.371,87.9586 99,89.5C 97.581,87.6641 96.4143,85.6641 95.5,83.5C 104.482,82.3347 113.482,82.168 122.5,83C 121.177,83.8159 120.511,84.9826 120.5,86.5 Z"/></g>
<g><path style="opacity:1" fill="#8e8559" d="M 95.5,76.5 C 95.5,76.8333 95.5,77.1667 95.5,77.5C 84.5952,86.1028 81.2618,97.1028 85.5,110.5C 85.631,111.239 85.4643,111.906 85,112.5C 80.534,100.906 82.034,90.2391 89.5,80.5C 91.264,78.7224 93.264,77.3891 95.5,76.5 Z"/></g>
<g><path style="opacity:1" fill="#5f4f35" d="M 105.5,112.5 C 104.833,112.5 104.167,112.5 103.5,112.5C 103.062,112.565 102.728,112.399 102.5,112C 103.965,110.226 105.298,108.392 106.5,106.5C 110.761,100.307 114.761,93.974 118.5,87.5C 119.167,87.1667 119.833,86.8333 120.5,86.5C 122.105,85.0313 122.605,85.3646 122,87.5C 116.278,95.7155 110.778,104.049 105.5,112.5 Z"/></g>
<g><path style="opacity:1" fill="#e1c064" d="M 113.5,84.5 C 114.919,83.5489 116.585,83.2155 118.5,83.5C 118.5,84.8333 118.5,86.1667 118.5,87.5C 114.761,93.974 110.761,100.307 106.5,106.5C 105.234,105.91 103.901,105.41 102.5,105C 104.037,103.89 104.703,102.39 104.5,100.5C 107.167,96.1667 109.833,91.8333 112.5,87.5C 114.382,86.779 114.715,85.779 113.5,84.5 Z"/></g>
<g><path style="opacity:1" fill="#584730" d="M 121.5,71.5 C 128.188,74.8549 133.188,79.8549 136.5,86.5C 136.631,87.2389 136.464,87.9056 136,88.5C 132.981,82.983 128.815,78.6496 123.5,75.5C 113.94,69.9903 104.606,70.3237 95.5,76.5C 93.264,77.3891 91.264,78.7224 89.5,80.5C 82.034,90.2391 80.534,100.906 85,112.5C 85.4643,111.906 85.631,111.239 85.5,110.5C 86.4884,111.795 87.4884,113.128 88.5,114.5C 87.7611,114.369 87.0944,114.536 86.5,115C 90.3599,120.933 95.6932,124.933 102.5,127C 101.584,127.278 100.918,127.778 100.5,128.5C 91.9257,125.255 85.5924,119.588 81.5,111.5C 76.7719,93.6339 82.4385,80.3006 98.5,71.5C 102.034,69.9524 105.867,69.2857 110,69.5C 114.133,69.2857 117.966,69.9524 121.5,71.5 Z"/></g>
<g><path style="opacity:1" fill="#776138" d="M 103.5,85.5 C 106.625,84.5206 109.958,84.1872 113.5,84.5C 114.715,85.779 114.382,86.779 112.5,87.5C 109.482,87.6646 106.482,87.498 103.5,87C 106.097,86.2208 106.097,85.7208 103.5,85.5 Z"/></g>
<g><path style="opacity:1" fill="#c3b46c" d="M 123.5,75.5 C 122.833,75.5 122.167,75.5 121.5,75.5C 112.521,72.4244 103.854,73.0911 95.5,77.5C 95.5,77.1667 95.5,76.8333 95.5,76.5C 104.606,70.3237 113.94,69.9903 123.5,75.5 Z"/></g>
<g><path style="opacity:1" fill="#a98a47" d="M 104.5,100.5 C 104.703,102.39 104.037,103.89 102.5,105C 103.901,105.41 105.234,105.91 106.5,106.5C 105.298,108.392 103.965,110.226 102.5,112C 102.728,112.399 103.062,112.565 103.5,112.5C 102.833,113.167 102.167,113.833 101.5,114.5C 99.5,114.5 97.5,114.5 95.5,114.5C 98.0043,109.485 101.004,104.819 104.5,100.5 Z"/></g>
<g><path style="opacity:1" fill="#afa687" d="M 159.5,109.5 C 159.5,109.833 159.5,110.167 159.5,110.5C 157.473,110.662 155.473,110.495 153.5,110C 155.365,108.2 157.365,108.034 159.5,109.5 Z"/></g>
<g><path style="opacity:1" fill="#8e7f5d" d="M 121.5,75.5 C 122.167,75.5 122.833,75.5 123.5,75.5C 128.815,78.6496 132.981,82.983 136,88.5C 136.464,87.9056 136.631,87.2389 136.5,86.5C 137.931,87.7804 138.598,89.4471 138.5,91.5C 137.778,91.0825 137.278,90.4158 137,89.5C 137.029,92.9514 137.196,96.4514 137.5,100C 137.786,108.925 134.452,116.092 127.5,121.5C 127.5,120.833 127.167,120.5 126.5,120.5C 129.553,117.61 132.053,114.276 134,110.5C 138.831,95.5159 134.665,83.8493 121.5,75.5 Z"/></g>
<g><path style="opacity:1" fill="#53432d" d="M 138.5,91.5 C 140.511,95.955 140.845,100.622 139.5,105.5C 136.536,118.464 128.536,126.464 115.5,129.5C 111.688,128.676 107.688,128.176 103.5,128C 112.482,128.887 120.482,126.72 127.5,121.5C 134.452,116.092 137.786,108.925 137.5,100C 137.196,96.4514 137.029,92.9514 137,89.5C 137.278,90.4158 137.778,91.0825 138.5,91.5 Z"/></g>
<g><path style="opacity:1" fill="#130e0b" d="M 81.5,111.5 C 85.5924,119.588 91.9257,125.255 100.5,128.5C 105.438,129.392 110.438,129.726 115.5,129.5C 128.536,126.464 136.536,118.464 139.5,105.5C 140.693,105.97 141.36,106.97 141.5,108.5C 141.333,109.5 141.167,110.5 141,111.5C 138.173,113.841 136.34,116.841 135.5,120.5C 136.024,123.396 137.524,124.063 140,122.5C 140.497,119.854 140.664,117.187 140.5,114.5C 141.833,114.5 143.167,114.5 144.5,114.5C 144.5,113.167 144.5,111.833 144.5,110.5C 145.833,110.5 147.167,110.5 148.5,110.5C 149.505,104.739 152.838,103.239 158.5,106C 159.337,107.011 159.67,108.178 159.5,109.5C 157.365,108.034 155.365,108.2 153.5,110C 155.473,110.495 157.473,110.662 159.5,110.5C 161.335,111.122 162.502,112.456 163,114.5C 163.811,113.04 164.645,112.707 165.5,113.5C 164.388,117.363 163.055,121.03 161.5,124.5C 160.867,124.12 160.2,123.787 159.5,123.5C 160.562,120.897 160.728,118.23 160,115.5C 160.212,119.769 158.712,123.269 155.5,126C 156.167,126.333 156.833,126.667 157.5,127C 155.611,128.764 153.611,130.264 151.5,131.5C 143.753,134.437 135.753,136.437 127.5,137.5C 126.167,136.833 124.833,136.167 123.5,135.5C 124.635,133.787 126.302,133.12 128.5,133.5C 131.955,134.532 135.622,134.532 139.5,133.5C 140.833,133.5 142.167,133.5 143.5,133.5C 143.281,132.325 143.614,131.325 144.5,130.5C 147.861,128.489 151.194,126.489 154.5,124.5C 157.669,122.426 158.669,119.759 157.5,116.5C 157.642,112.777 156.309,111.944 153.5,114C 155.125,114.853 155.458,115.853 154.5,117C 153.004,117.507 151.837,117.007 151,115.5C 150.25,116.126 149.416,116.626 148.5,117C 147.91,119.416 147.91,121.583 148.5,123.5C 144.171,124.379 140.504,126.379 137.5,129.5C 135.992,132.25 133.659,133.084 130.5,132C 129.751,130.266 129.251,128.433 129,126.5C 127.388,128.456 127.222,130.456 128.5,132.5C 124.537,132.089 120.87,132.922 117.5,135C 119.134,135.494 120.801,135.66 122.5,135.5C 117.838,137.256 113.671,139.923 110,143.5C 106.395,139.28 101.895,137.113 96.5,137C 97.7375,137.232 98.7375,137.732 99.5,138.5C 87.5482,137.679 76.2148,134.679 65.5,129.5C 61.3592,126.903 61.6925,126.069 66.5,127C 62.684,124.537 60.5174,121.037 60,116.5C 59.289,118.899 59.4557,121.232 60.5,123.5C 59.8333,123.833 59.1667,124.167 58.5,124.5C 59.4667,127.129 61.1334,129.129 63.5,130.5C 65.8838,132.885 68.5505,134.885 71.5,136.5C 68.8205,136.327 66.4872,135.327 64.5,133.5C 63.8933,133.624 63.56,133.957 63.5,134.5C 62.213,135.768 61.213,135.435 60.5,133.5C 59.5745,134.641 58.7412,134.641 58,133.5C 57.2797,131.888 57.4464,130.388 58.5,129C 57.1667,126 55.8333,123 54.5,120C 50.4887,120.185 48.4887,118.352 48.5,114.5C 51.5422,115.541 54.5422,115.541 57.5,114.5C 57.5,113.5 57.5,112.5 57.5,111.5C 55.1579,111.496 53.1579,110.663 51.5,109C 53.5398,107.62 55.5398,107.12 57.5,107.5C 56.0878,106.194 54.4211,105.36 52.5,105C 55.1922,104.57 57.8589,104.737 60.5,105.5C 60.2627,106.791 60.596,107.791 61.5,108.5C 62.3984,107.842 63.3984,107.176 64.5,106.5C 64.1543,105.304 63.6543,105.304 63,106.5C 62.7978,104.744 62.2978,103.078 61.5,101.5C 59.9975,105.374 59.3309,105.041 59.5,100.5C 60.8333,100.5 62.1667,100.5 63.5,100.5C 63.5,101.833 63.5,103.167 63.5,104.5C 65.7867,104.724 67.9534,105.391 70,106.5C 71.5971,105.115 73.4305,104.449 75.5,104.5C 75.5,106.833 75.5,109.167 75.5,111.5C 76.5,111.5 77.5,111.5 78.5,111.5C 78.3398,109.801 78.5065,108.134 79,106.5C 79.0496,108.744 79.8829,110.411 81.5,111.5 Z"/></g>
<g><path style="opacity:1" fill="#c5b065" d="M 148.5,123.5 C 149.833,123.5 151.167,123.5 152.5,123.5C 153.492,123.328 154.158,123.662 154.5,124.5C 151.194,126.489 147.861,128.489 144.5,130.5C 143.614,131.325 143.281,132.325 143.5,133.5C 142.167,133.5 140.833,133.5 139.5,133.5C 139.062,133.565 138.728,133.399 138.5,133C 140.044,132.71 141.377,132.044 142.5,131C 141.328,130.647 140.162,130.813 139,131.5C 137.97,131.164 137.47,130.497 137.5,129.5C 140.504,126.379 144.171,124.379 148.5,123.5 Z"/></g>
<g><path style="opacity:1" fill="#ada686" d="M 134.5,124.5 C 136.465,124.948 136.798,125.948 135.5,127.5C 134.614,126.675 134.281,125.675 134.5,124.5 Z"/></g>
<g><path style="opacity:1" fill="#c2c489" d="M 83.5,125.5 C 85.337,125.639 85.6704,126.306 84.5,127.5C 83.7025,127.043 83.3691,126.376 83.5,125.5 Z"/></g>
<g><path style="opacity:1" fill="#c5b15d" d="M 63.5,118.5 C 63.5106,120.017 64.1772,121.184 65.5,122C 68.7699,122.995 72.1033,123.828 75.5,124.5C 78.0765,125.943 80.4099,127.61 82.5,129.5C 81.209,129.263 80.209,129.596 79.5,130.5C 78.1751,129.047 77.3418,129.381 77,131.5C 72.242,128.872 67.742,125.872 63.5,122.5C 62.8728,121.583 62.5394,120.583 62.5,119.5C 62.5,118.833 62.8333,118.5 63.5,118.5 Z"/></g>
<g><path style="opacity:1" fill="#a7996a" d="M 88.5,114.5 C 90.1801,116.867 92.1801,119.034 94.5,121C 105.235,127.112 115.902,126.945 126.5,120.5C 127.167,120.5 127.5,120.833 127.5,121.5C 120.482,126.72 112.482,128.887 103.5,128C 107.688,128.176 111.688,128.676 115.5,129.5C 110.438,129.726 105.438,129.392 100.5,128.5C 100.918,127.778 101.584,127.278 102.5,127C 95.6932,124.933 90.3599,120.933 86.5,115C 87.0944,114.536 87.7611,114.369 88.5,114.5 Z"/></g>
<g><path style="opacity:1" fill="#827258" d="M 157.5,116.5 C 158.669,119.759 157.669,122.426 154.5,124.5C 154.158,123.662 153.492,123.328 152.5,123.5C 155.29,122.033 156.956,119.7 157.5,116.5 Z"/></g>
<g><path style="opacity:1" fill="#7c6d52" d="M 65.5,129.5 C 64.5084,129.328 63.8417,129.662 63.5,130.5C 61.1334,129.129 59.4667,127.129 58.5,124.5C 59.1667,124.167 59.8333,123.833 60.5,123.5C 59.4557,121.232 59.289,118.899 60,116.5C 60.5174,121.037 62.684,124.537 66.5,127C 61.6925,126.069 61.3592,126.903 65.5,129.5 Z"/></g>
<g><path style="opacity:1" fill="#3e3628" d="M 157.5,116.5 C 156.956,119.7 155.29,122.033 152.5,123.5C 151.167,123.5 149.833,123.5 148.5,123.5C 147.91,121.583 147.91,119.416 148.5,117C 149.416,116.626 150.25,116.126 151,115.5C 151.837,117.007 153.004,117.507 154.5,117C 155.458,115.853 155.125,114.853 153.5,114C 156.309,111.944 157.642,112.777 157.5,116.5 Z"/></g>
<g><path style="opacity:1" fill="#605944" d="M 63.5,118.5 C 62.8333,118.5 62.5,118.833 62.5,119.5C 61.4475,116.573 62.4475,114.239 65.5,112.5C 65.8987,114.206 65.8987,115.706 65.5,117C 67.641,116.914 69.9743,117.081 72.5,117.5C 72.6713,120.797 72.0046,121.131 70.5,118.5C 68.0331,118.6 65.6998,118.6 63.5,118.5 Z"/></g>
<g><path style="opacity:1" fill="#56461a" d="M 122.5,113.5 C 123.404,114.209 123.737,115.209 123.5,116.5C 114.114,116.78 104.78,116.447 95.5,115.5C 95.5,115.167 95.5,114.833 95.5,114.5C 97.5,114.5 99.5,114.5 101.5,114.5C 108.687,114.825 115.687,114.491 122.5,113.5 Z"/></g>
<g><path style="opacity:1" fill="#cdad6a" d="M 117.5,108.5 C 118.404,109.209 118.737,110.209 118.5,111.5C 120.38,111.229 121.713,111.896 122.5,113.5C 115.687,114.491 108.687,114.825 101.5,114.5C 102.167,113.833 102.833,113.167 103.5,112.5C 104.167,112.5 104.833,112.5 105.5,112.5C 108.187,112.664 110.854,112.497 113.5,112C 115.324,111.34 116.657,110.173 117.5,108.5 Z"/></g>
<g><path style="opacity:1" fill="#574b3c" d="M 95.5,115.5 C 104.78,116.447 114.114,116.78 123.5,116.5C 123.737,115.209 123.404,114.209 122.5,113.5C 121.713,111.896 120.38,111.229 118.5,111.5C 118.737,110.209 118.404,109.209 117.5,108.5C 118.462,106.014 119.295,106.014 120,108.5C 120.317,106.699 120.984,106.366 122,107.5C 123.123,110.249 124.623,112.749 126.5,115C 125.833,115.667 125.167,116.333 124.5,117C 119.667,117.167 114.833,117.333 110,117.5C 104.784,117.494 99.951,116.827 95.5,115.5 Z"/></g>
<g><path style="opacity:1" fill="#8f9172" d="M 61.5,108.5 C 63.4286,108.231 65.0953,108.731 66.5,110C 64.444,110.311 62.444,110.811 60.5,111.5C 60.1667,111.167 59.8333,110.833 59.5,110.5C 60.2427,109.818 60.9094,109.151 61.5,108.5 Z"/></g>
<g><path style="opacity:1" fill="#887459" d="M 91.5,132.5 C 87.5467,134.831 83.5467,134.997 79.5,133C 80.1667,132.667 80.8333,132.333 81.5,132C 80.5842,131.722 79.9175,131.222 79.5,130.5C 80.209,129.596 81.209,129.263 82.5,129.5C 84.6031,130.98 84.6031,132.147 82.5,133C 85.2569,133.782 87.7569,133.282 90,131.5C 90.2395,129.239 90.4062,127.239 90.5,125.5C 92.6152,127.615 92.9485,129.949 91.5,132.5 Z"/></g>
<g><path style="opacity:1" fill="#5a5234" d="M 137.5,129.5 C 137.47,130.497 137.97,131.164 139,131.5C 140.162,130.813 141.328,130.647 142.5,131C 141.377,132.044 140.044,132.71 138.5,133C 138.728,133.399 139.062,133.565 139.5,133.5C 135.622,134.532 131.955,134.532 128.5,133.5C 128.5,133.167 128.5,132.833 128.5,132.5C 127.222,130.456 127.388,128.456 129,126.5C 129.251,128.433 129.751,130.266 130.5,132C 133.659,133.084 135.992,132.25 137.5,129.5 Z"/></g>
<g><path style="opacity:1" fill="#b8af74" d="M 91.5,132.5 C 95.4102,132.263 99.0769,133.096 102.5,135C 100.5,135.667 98.5,135.667 96.5,135C 94.8251,134.015 93.1585,133.181 91.5,132.5 Z"/></g>
<g><path style="opacity:1" fill="#b39e76" d="M 128.5,132.5 C 128.5,132.833 128.5,133.167 128.5,133.5C 126.302,133.12 124.635,133.787 123.5,135.5C 123.167,135.5 122.833,135.5 122.5,135.5C 120.801,135.66 119.134,135.494 117.5,135C 120.87,132.922 124.537,132.089 128.5,132.5 Z"/></g>
<g><path style="opacity:1" fill="#2b1202" d="M 153.5,132.5 C 155.842,132.775 155.842,133.608 153.5,135C 151.975,136.009 150.308,136.509 148.5,136.5C 150.349,135.407 152.016,134.074 153.5,132.5 Z"/></g>
<g><path style="opacity:1" fill="#cdb25f" d="M 65.5,129.5 C 76.2148,134.679 87.5482,137.679 99.5,138.5C 100.6,139.558 101.934,140.392 103.5,141C 102.207,141.49 100.873,141.657 99.5,141.5C 95.4659,141.495 91.4659,141.162 87.5,140.5C 84.7938,140.425 82.1272,140.092 79.5,139.5C 77.2084,137.733 74.5418,136.733 71.5,136.5C 68.5505,134.885 65.8838,132.885 63.5,130.5C 63.8417,129.662 64.5084,129.328 65.5,129.5 Z"/></g>
<g><path style="opacity:1" fill="#96825b" d="M 161.5,124.5 C 160.772,126.735 159.439,128.568 157.5,130C 158.451,130.718 158.617,131.551 158,132.5C 153.526,137.322 148.026,139.822 141.5,140C 142.056,139.617 142.389,139.117 142.5,138.5C 144.297,137.27 146.297,136.604 148.5,136.5C 150.308,136.509 151.975,136.009 153.5,135C 155.842,133.608 155.842,132.775 153.5,132.5C 153.158,131.662 152.492,131.328 151.5,131.5C 153.611,130.264 155.611,128.764 157.5,127C 156.833,126.667 156.167,126.333 155.5,126C 158.712,123.269 160.212,119.769 160,115.5C 160.728,118.23 160.562,120.897 159.5,123.5C 160.2,123.787 160.867,124.12 161.5,124.5 Z"/></g>
<g><path style="opacity:1" fill="#cab562" d="M 151.5,131.5 C 152.492,131.328 153.158,131.662 153.5,132.5C 152.016,134.074 150.349,135.407 148.5,136.5C 146.297,136.604 144.297,137.27 142.5,138.5C 138.888,139.422 135.221,140.089 131.5,140.5C 129.265,140.205 127.265,140.539 125.5,141.5C 121.443,141.848 117.443,142.514 113.5,143.5C 114.225,142.03 115.891,140.864 118.5,140C 121.628,139.159 124.628,138.325 127.5,137.5C 135.753,136.437 143.753,134.437 151.5,131.5 Z"/></g>
<g><path style="opacity:1" fill="#b5a460" d="M 63.5,134.5 C 63.56,133.957 63.8933,133.624 64.5,133.5C 66.4872,135.327 68.8205,136.327 71.5,136.5C 72.842,137.793 74.5087,138.626 76.5,139C 75.9056,139.464 75.2389,139.631 74.5,139.5C 70.1824,139.173 66.5157,137.506 63.5,134.5 Z"/></g>
<g><path style="opacity:1" fill="#655630" d="M 71.5,136.5 C 74.5418,136.733 77.2084,137.733 79.5,139.5C 80.8502,140.65 80.6836,141.317 79,141.5C 77.2725,141.101 75.7725,140.434 74.5,139.5C 75.2389,139.631 75.9056,139.464 76.5,139C 74.5087,138.626 72.842,137.793 71.5,136.5 Z"/></g>
<g><path style="opacity:1" fill="#54462c" d="M 87.5,140.5 C 91.4659,141.162 95.4659,141.495 99.5,141.5C 100.833,142.167 102.167,142.833 103.5,143.5C 102.5,144.167 101.5,144.833 100.5,145.5C 99.5084,145.672 98.8417,145.338 98.5,144.5C 94.9966,142.976 91.3299,142.642 87.5,143.5C 88.9492,144.172 90.2825,144.839 91.5,145.5C 88.9407,145.198 86.6074,145.532 84.5,146.5C 78.019,145.184 78.3524,144.351 85.5,144C 85.1667,143.667 84.8333,143.333 84.5,143C 85.5707,142.148 86.5707,141.315 87.5,140.5 Z"/></g>
<g><path style="opacity:1" fill="#615538" d="M 125.5,141.5 C 127.265,140.539 129.265,140.205 131.5,140.5C 132.209,141.404 133.209,141.737 134.5,141.5C 134.5,142.5 134.5,143.5 134.5,144.5C 146.352,143.253 146.352,143.919 134.5,146.5C 132.735,145.539 130.735,145.205 128.5,145.5C 129.718,144.839 131.051,144.172 132.5,143.5C 130.223,142.579 127.89,141.913 125.5,141.5 Z"/></g>
<g><path style="opacity:1" fill="#816d47" d="M 122.5,135.5 C 122.833,135.5 123.167,135.5 123.5,135.5C 124.833,136.167 126.167,136.833 127.5,137.5C 124.628,138.325 121.628,139.159 118.5,140C 115.891,140.864 114.225,142.03 113.5,143.5C 112.38,147.507 110.713,148.007 108.5,145C 106.975,143.991 105.308,143.491 103.5,143.5C 102.167,142.833 100.833,142.167 99.5,141.5C 100.873,141.657 102.207,141.49 103.5,141C 101.934,140.392 100.6,139.558 99.5,138.5C 98.7375,137.732 97.7375,137.232 96.5,137C 101.895,137.113 106.395,139.28 110,143.5C 113.671,139.923 117.838,137.256 122.5,135.5 Z"/></g>
<g><path style="opacity:1" fill="#0f0404" d="M 98.5,144.5 C 96.0504,144.298 93.717,144.631 91.5,145.5C 90.2825,144.839 88.9492,144.172 87.5,143.5C 91.3299,142.642 94.9966,142.976 98.5,144.5 Z"/></g>
<g><path style="opacity:1" fill="#b3a976" d="M 98.5,144.5 C 98.8417,145.338 99.5084,145.672 100.5,145.5C 105.033,146.134 107.866,148.467 109,152.5C 108.23,151.402 107.397,151.402 106.5,152.5C 106.489,150.983 105.823,149.816 104.5,149C 99.9588,146.301 95.2921,145.968 90.5,148C 89.9288,149.205 89.2621,150.372 88.5,151.5C 87.246,149.741 87.5794,148.241 89.5,147C 87.8659,146.506 86.1992,146.34 84.5,146.5C 86.6074,145.532 88.9407,145.198 91.5,145.5C 93.717,144.631 96.0504,144.298 98.5,144.5 Z"/></g>
<g><path style="opacity:1" fill="#34271f" d="M 125.5,141.5 C 127.89,141.913 130.223,142.579 132.5,143.5C 131.051,144.172 129.718,144.839 128.5,145.5C 121.749,144.295 115.915,145.962 111,150.5C 110.911,152.113 111.745,153.28 113.5,154C 111.249,156.016 110.916,158.349 112.5,161C 110.737,165.421 108.903,165.255 107,160.5C 106.467,156.147 106.801,155.814 108,159.5C 108.692,158.975 109.192,158.308 109.5,157.5C 108.048,156.06 107.048,154.394 106.5,152.5C 107.397,151.402 108.23,151.402 109,152.5C 107.866,148.467 105.033,146.134 100.5,145.5C 101.5,144.833 102.5,144.167 103.5,143.5C 105.308,143.491 106.975,143.991 108.5,145C 110.713,148.007 112.38,147.507 113.5,143.5C 117.443,142.514 121.443,141.848 125.5,141.5 Z"/></g>
<g><path style="opacity:1" fill="#c5bea7" d="M 130.5,147.5 C 132.476,148.427 132.809,149.76 131.5,151.5C 130.571,150.311 130.238,148.978 130.5,147.5 Z"/></g>
<g><path style="opacity:1" fill="#8b7d5d" d="M 94.5,148.5 C 99.3243,147.37 102.158,149.037 103,153.5C 101.745,151.406 99.9116,150.406 97.5,150.5C 95.3425,150.921 93.3425,151.421 91.5,152C 92.7101,150.961 93.7101,149.794 94.5,148.5 Z"/></g>
<g><path style="opacity:1" fill="#9d916c" d="M 120.5,152.5 C 121.978,152.238 123.311,152.571 124.5,153.5C 123.399,155.394 122.066,156.061 120.5,155.5C 122.153,158.439 124.486,159.272 127.5,158C 120.869,161.261 118.536,159.428 120.5,152.5 Z"/></g>
<g><path style="opacity:1" fill="#a3986c" d="M 95.5,152.5 C 100.328,152.385 101.661,154.552 99.5,159C 97.5,159.667 95.5,159.667 93.5,159C 96.2451,158.947 98.2451,157.78 99.5,155.5C 98.7376,155.089 97.7376,154.923 96.5,155C 95.7476,154.329 95.4142,153.496 95.5,152.5 Z"/></g>
<g><path style="opacity:1" fill="#9d8f64" d="M 128.5,145.5 C 130.735,145.205 132.735,145.539 134.5,146.5C 132.901,146.232 131.568,146.566 130.5,147.5C 127.824,146.992 125.157,146.825 122.5,147C 123.833,148 125.167,149 126.5,150C 123.236,148.973 120.403,149.806 118,152.5C 117.91,150.232 119.077,148.732 121.5,148C 112.922,148.194 111.755,151.028 118,156.5C 119.244,166.902 114.744,170.402 104.5,167C 100.002,161.32 100.669,156.487 106.5,152.5C 107.048,154.394 108.048,156.06 109.5,157.5C 109.192,158.308 108.692,158.975 108,159.5C 106.801,155.814 106.467,156.147 107,160.5C 108.903,165.255 110.737,165.421 112.5,161C 110.916,158.349 111.249,156.016 113.5,154C 111.745,153.28 110.911,152.113 111,150.5C 115.915,145.962 121.749,144.295 128.5,145.5 Z"/></g>
<g><path style="opacity:1" fill="#201408" d="M 103.5,156.5 C 105.167,159.669 106.334,163.002 107,166.5C 102.78,164.229 101.613,160.896 103.5,156.5 Z"/></g>
<g><path style="opacity:1" fill="#1d1104" d="M 115.5,156.5 C 118.558,160.821 117.558,164.155 112.5,166.5C 112.167,166.333 111.833,166.167 111.5,166C 114.076,163.349 115.409,160.182 115.5,156.5 Z"/></g>
<g><path style="opacity:1" fill="#fcfcfc" d="M -0.5,220.5 C 42.5052,220.167 85.5052,220.5 128.5,221.5C 128.062,222.506 127.396,222.506 126.5,221.5C 125.738,222.628 125.071,223.795 124.5,225C 126.582,225.205 128.749,225.038 131,224.5C 132.728,225.352 132.895,226.352 131.5,227.5C 125.5,227.5 119.5,227.5 113.5,227.5C 114.287,225.896 115.62,225.229 117.5,225.5C 117.5,224.5 117.5,223.5 117.5,222.5C 114.989,222.838 112.655,222.838 110.5,222.5C 109.833,223.167 109.167,223.833 108.5,224.5C 106.211,222.408 103.711,222.074 101,223.5C 95.5315,222.812 90.0315,222.145 84.5,221.5C 79.2187,222.286 73.8854,222.786 68.5,223C 69.1258,223.75 69.6258,224.584 70,225.5C 73.3509,224.959 77.1842,224.959 81.5,225.5C 84.6128,225.438 87.4461,224.771 90,223.5C 92.3863,225.091 95.053,226.091 98,226.5C 98.3333,225.5 98.6667,224.5 99,223.5C 100.456,225.465 102.29,226.799 104.5,227.5C 69.5,227.5 34.5,227.5 -0.5,227.5C -0.5,225.167 -0.5,222.833 -0.5,220.5 Z"/></g>
<g><path style="opacity:1" fill="#fefefe" d="M 220.5,220.5 C 220.5,222.833 220.5,225.167 220.5,227.5C 194.5,227.5 168.5,227.5 142.5,227.5C 143.185,224.018 144.519,223.352 146.5,225.5C 147.72,224.289 148.887,224.289 150,225.5C 150.309,224.234 150.809,223.067 151.5,222C 150.167,221.667 148.833,221.333 147.5,221C 171.831,220.5 196.164,220.333 220.5,220.5 Z"/></g>
<g><path style="opacity:1" fill="#d4d4d4" d="M 113.5,227.5 C 110.5,227.5 107.5,227.5 104.5,227.5C 102.29,226.799 100.456,225.465 99,223.5C 98.6667,224.5 98.3333,225.5 98,226.5C 95.053,226.091 92.3863,225.091 90,223.5C 87.4461,224.771 84.6128,225.438 81.5,225.5C 77.1842,224.959 73.3509,224.959 70,225.5C 69.6258,224.584 69.1258,223.75 68.5,223C 73.8854,222.786 79.2187,222.286 84.5,221.5C 90.0315,222.145 95.5315,222.812 101,223.5C 103.711,222.074 106.211,222.408 108.5,224.5C 109.167,223.833 109.833,223.167 110.5,222.5C 112.655,222.838 114.989,222.838 117.5,222.5C 117.5,223.5 117.5,224.5 117.5,225.5C 115.62,225.229 114.287,225.896 113.5,227.5 Z"/></g>
<g><path style="opacity:1" fill="#b8b8b8" d="M -0.5,220.5 C -0.5,220.167 -0.5,219.833 -0.5,219.5C 73.1667,219.5 146.833,219.5 220.5,219.5C 220.5,219.833 220.5,220.167 220.5,220.5C 196.164,220.333 171.831,220.5 147.5,221C 148.833,221.333 150.167,221.667 151.5,222C 150.809,223.067 150.309,224.234 150,225.5C 148.887,224.289 147.72,224.289 146.5,225.5C 144.519,223.352 143.185,224.018 142.5,227.5C 138.833,227.5 135.167,227.5 131.5,227.5C 132.895,226.352 132.728,225.352 131,224.5C 128.749,225.038 126.582,225.205 124.5,225C 125.071,223.795 125.738,222.628 126.5,221.5C 127.396,222.506 128.062,222.506 128.5,221.5C 85.5052,220.5 42.5052,220.167 -0.5,220.5 Z"/></g>
</svg>
